<?xml version="1.0" encoding="utf-8"?>
<svg viewBox="0 0 500 500" xmlns="http://www.w3.org/2000/svg">
  <path id="path834" style="fill:#d4cdc0;fill-opacity:1;fill-rule:nonzero;stroke:none" d="m 851.598,5000 h -0.645 c 0.106,0 0.207,0 0.313,0 0.109,0 0.218,0 0.332,0"/>
  <path id="path2292" style="fill:#d4cdc0;fill-opacity:1;fill-rule:nonzero;stroke:none" d="m 5000,203.332 v 0.188 c 0,-0.059 0,-0.129 0,-0.188"/>
  <path id="path4448" style="fill:#906941;fill-opacity:1;fill-rule:nonzero;stroke:none" d="m 2071.47,4306.89 v 0 0.01 -0.01"/>
  <path id="path4478" style="fill:#906941;fill-opacity:1;fill-rule:nonzero;stroke:none" d="m 1995.21,4798.12 v 0 0 0"/>
  <path id="path4500" style="fill:#906941;fill-opacity:1;fill-rule:nonzero;stroke:none" d="m 2401.93,4764.24 v 0 0.01 -0.01"/>
  <path id="path4540" style="fill:#906941;fill-opacity:1;fill-rule:nonzero;stroke:none" d="m 965.656,4150.21 v 0.01 -0.01"/>
  <path id="path4554" style="fill:#906941;fill-opacity:1;fill-rule:nonzero;stroke:none" d="m 4600.81,4751.54 h 0.01 -0.01"/>
  <path id="path4558" style="fill:#906941;fill-opacity:1;fill-rule:nonzero;stroke:none" d="m 965.656,4150.21 v 0.01 -0.01"/>
  <path id="path4564" style="fill:#906941;fill-opacity:1;fill-rule:nonzero;stroke:none" d="m 4600.81,4751.54 h 0.01 -0.01"/>
  <path id="path4600" style="fill:#906941;fill-opacity:1;fill-rule:nonzero;stroke:none" d="m 2651.9,3705.57 v 0.01 -0.01"/>
  <path id="path4604" style="fill:#906941;fill-opacity:1;fill-rule:nonzero;stroke:none" d="m 626.719,2943.33 v 0.01 -0.01"/>
  <path id="path4606" style="fill:#906941;fill-opacity:1;fill-rule:nonzero;stroke:none" d="m 626.719,2943.33 v 0.01 -0.01"/>
  <path id="path4608" style="fill:#906941;fill-opacity:1;fill-rule:nonzero;stroke:none" d="m 1283.42,4671.08 v 0 0"/>
  <path id="path4650" style="fill:#906941;fill-opacity:1;fill-rule:nonzero;stroke:none" d="m 550.461,1058.92 v 0"/>
  <path id="path4678" style="fill:#906941;fill-opacity:1;fill-rule:nonzero;stroke:none" d="m 4816.9,1609.41 v 0 0"/>
  <path id="path4684" style="fill:#906941;fill-opacity:1;fill-rule:nonzero;stroke:none" d="m 4816.9,1609.41 v 0 0"/>
  <path id="path4698" style="fill:#906941;fill-opacity:1;fill-rule:nonzero;stroke:none" d="m 2262.12,4781.18 v 0 0"/>
  <path id="path4710" style="fill:#906941;fill-opacity:1;fill-rule:nonzero;stroke:none" d="m 4088.17,2884.05 h -0.01 0.01"/>
  <path id="path4714" style="fill:#906941;fill-opacity:1;fill-rule:nonzero;stroke:none" d="m 4388.95,3883.36 v 0 0 0"/>
  <path id="path4744" style="fill:#906941;fill-opacity:1;fill-rule:nonzero;stroke:none" d="m 4922.82,114.57 h -0.01 0.01"/>
  <path id="path4806" style="fill:#906941;fill-opacity:1;fill-rule:nonzero;stroke:none" d="m 4431.36,4391.59 h -0.01 0.01"/>
  <path id="path4828" style="fill:#906941;fill-opacity:1;fill-rule:nonzero;stroke:none" d="m 813.137,2773.94 v 0.01 -0.01"/>
  <path id="path4852" style="fill:#906941;fill-opacity:1;fill-rule:nonzero;stroke:none" d="m 1173.26,4488.98 v 0.01 -0.01"/>
  <g style="" transform="matrix(2.050158, 0, 0, 2.050158, -267.644928, -262.539551)">
    <g transform="matrix(1, 0, 0, 1, -323.247986, 119.745628)">
      <path id="path5942" style="fill:#ffffff;fill-opacity:1;fill-rule:nonzero;stroke:none" d="M 476.688 74.506 L 477.425 75.782 L 573.249 20.458 L 668.333 75.357 L 668.333 185.154 L 573.249 240.051 L 478.161 185.154 L 478.161 74.506 L 476.688 74.506 L 477.425 75.782 L 476.688 74.506 L 475.215 74.506 L 475.215 186.004 C 475.215 186.531 475.496 187.018 475.951 187.28 L 572.512 243.029 C 572.968 243.292 573.53 243.292 573.985 243.029 L 670.542 187.28 C 670.998 187.018 671.28 186.531 671.28 186.004 L 671.28 74.506 C 671.28 73.979 670.998 73.493 670.542 73.23 L 573.985 17.479 C 573.53 17.217 572.968 17.217 572.512 17.479 L 475.951 73.23 C 475.496 73.493 475.215 73.979 475.215 74.506 L 476.688 74.506"/>
      <path id="path5984" style="fill:#ffffff;fill-opacity:1;fill-rule:nonzero;stroke:none" d="M 484.864 181.284 L 485.416 181.284 L 485.416 79.545 L 573.25 28.834 L 661.082 79.545 L 661.082 180.966 L 573.25 231.675 L 485.14 180.806 L 484.864 181.284 L 485.416 181.284 L 484.864 181.284 L 484.588 181.763 L 572.974 232.792 C 573.145 232.891 573.355 232.891 573.526 232.792 L 661.91 181.763 C 662.081 181.664 662.186 181.482 662.186 181.284 L 662.186 79.226 C 662.186 79.027 662.081 78.846 661.91 78.747 L 573.526 27.717 C 573.355 27.618 573.145 27.618 572.974 27.717 L 484.588 78.747 C 484.416 78.846 484.31 79.027 484.31 79.226 L 484.31 181.284 C 484.31 181.482 484.416 181.664 484.588 181.763 L 484.864 181.284"/>
      <g transform="matrix(1, 0, 0, 1, -256.814026, 0)">
        <path id="path5988" style="fill:#ffffff;fill-opacity:1;fill-rule:nonzero;stroke:none" d="M 918.885 147.148 C 918.885 150.575 915.352 153.351 910.976 153.351 C 870.992 153.351 794.658 153.351 749.147 153.351 C 744.774 153.351 741.24 150.575 741.24 147.148 C 741.24 140.845 741.24 128.237 741.24 121.933 C 741.24 118.508 744.764 115.732 749.147 115.732 C 803.276 115.732 872.636 115.732 910.976 115.732 C 915.355 115.732 918.885 118.508 918.885 121.933 C 918.885 128.237 918.885 140.845 918.885 147.148"/>
        <path id="path5990" style="fill:#ffffff;fill-opacity:1;fill-rule:nonzero;stroke:none" d="M 750.134 133.68 C 750.134 140.832 745.918 139.479 738.142 140.261 C 732.646 140.815 730.103 145.411 722.987 145.541 C 715.856 145.672 712.575 140.143 712.575 133.665 C 712.575 127.187 715.856 122.081 722.987 122.081 C 729.182 122.081 730.759 125.909 737.747 127.212 C 745.735 128.703 750.134 126.967 750.134 133.68"/>
        <path id="path5992" style="fill:#ffffff;fill-opacity:1;fill-rule:nonzero;stroke:none" d="M 909.991 133.68 C 909.991 140.832 914.207 139.479 921.981 140.261 C 927.479 140.815 930.021 145.411 937.137 145.541 C 944.268 145.672 947.549 140.143 947.549 133.665 C 947.549 127.187 944.268 122.081 937.137 122.081 C 930.944 122.081 929.364 125.909 922.377 127.212 C 914.389 128.703 909.991 126.967 909.991 133.68"/>
      </g>
      <path id="path5986" style="fill:#ffffff;fill-opacity:1;fill-rule:nonzero;stroke:none" d="M 571.224 80.995 C 571.454 81.507 572.424 82.638 573.828 83.534 C 574.979 82.766 575.715 81.868 575.891 81.491 C 576.184 79.318 575.042 77.67 573.287 76.496 C 571.921 77.519 570.952 78.966 571.224 80.995 Z M 564.541 74.218 C 559.155 74.218 552.554 76.264 550.851 82.559 C 550.12 85.251 550.832 87.854 552.915 90.087 C 556.661 94.108 564.288 96.415 573.84 96.415 C 583.309 96.415 590.861 94.138 594.563 90.166 C 596.652 87.923 597.363 85.292 596.621 82.559 C 594.755 75.679 587.168 73.73 581.41 74.01 C 583.392 76.436 584.282 79.363 583.796 82.498 C 583.637 83.54 583.068 84.679 582.202 85.784 C 582.726 86.26 583.093 86.87 583.228 87.563 C 583.584 89.42 582.104 91.172 579.928 91.476 C 577.87 91.763 575.812 91.638 573.819 91.116 C 571.782 91.642 569.648 91.77 567.542 91.476 C 565.366 91.172 563.886 89.42 564.242 87.563 C 564.381 86.862 564.756 86.244 565.288 85.767 C 564.21 84.491 563.497 83.172 563.319 82.012 C 562.871 79.139 563.551 76.478 565.157 74.227 C 564.954 74.22 564.748 74.218 564.541 74.218 Z M 573.84 103.234 C 561.663 103.234 552.01 100.072 546.661 94.33 C 543.064 90.467 541.786 85.742 543.064 81.022 C 546.024 70.12 558.331 66.083 568.975 67.732 C 570.432 67.958 571.804 68.283 573.084 68.698 C 574.551 68.179 576.159 67.779 577.885 67.511 C 588.522 65.863 601.428 70.038 604.406 81.022 C 605.695 85.783 604.424 90.538 600.817 94.408 C 595.513 100.099 585.934 103.234 573.84 103.234"/>
      <g transform="matrix(1.305699, 0, 0, -1.11408, 91.519096, 518.960632)" id="g5994" style="">
        <text id="text5998" style="font-variant: normal; font-weight: normal; font-size: 20.8151px; font-family: Colus; writing-mode: lr-tb; fill: rgb(178, 134, 83); fill-opacity: 1; fill-rule: nonzero; stroke: none; white-space: pre;" transform="matrix(1,0,0,-1,307.152,337.968)"><tspan id="tspan5996" y="0" x="0 21.501999 43.899525 66.38002 87.194519 108.55087">BAKERY</tspan></text>
      </g>
      <g transform="matrix(1.562659, 0, 0, -1.33333, 8.63318, 596.433655)" id="g6000">
        <text id="text6004" style="font-variant: normal; font-weight: normal; font-size: 15.7699px; font-family: Colus; writing-mode: lr-tb; fill: rgb(255, 255, 255); fill-opacity: 1; fill-rule: nonzero; stroke: none; white-space: pre;" transform="matrix(1,0,0,-1,336.858,311.43)"><tspan id="tspan6002" y="0" x="0 13.656306 28.101614 41.127998 51.346809">HOUSE</tspan></text>
      </g>
      <path id="path6006" style="fill:#ffffff;fill-opacity:1;fill-rule:nonzero;stroke:none" d="M 629.214 173.411 C 629.214 175.077 627.63 176.427 625.679 176.427 C 623.728 176.427 622.144 175.077 622.144 173.411 C 622.144 171.744 623.728 170.395 625.679 170.395 C 627.63 170.395 629.214 171.744 629.214 173.411"/>
      <path id="path6008" style="fill:#ffffff;fill-opacity:1;fill-rule:nonzero;stroke:none" d="M 525.331 173.411 C 525.331 175.077 523.75 176.427 521.797 176.427 C 519.843 176.427 518.263 175.077 518.263 173.411 C 518.263 171.744 519.843 170.395 521.797 170.395 C 523.75 170.395 525.331 171.744 525.331 173.411"/>
      <g transform="matrix(1.562659, 0, 0, -1.33333, 8.63318, 596.433655)" id="g6010">
        <text id="text6014" style="font-variant: normal; font-weight: 600; font-size: 8.9802px; font-family: Dosis; writing-mode: lr-tb; fill: rgb(255, 255, 255); fill-opacity: 1; fill-rule: nonzero; stroke: none; white-space: pre;" transform="matrix(1,0,0,-1,352.244,297.802)"><tspan id="tspan6012" y="0" x="0 5.0556703 10.111341 15.166986">1990</tspan></text>
      </g>
      <path id="path6016" style="fill:#ffffff;fill-opacity:1;fill-rule:nonzero;stroke:none" d="M 544.466 195.935 L 551.557 195.935 C 551.913 195.935 552.204 195.688 552.204 195.383 C 552.204 195.077 551.913 194.829 551.557 194.829 L 544.466 194.829 C 544.11 194.829 543.819 195.077 543.819 195.383 C 543.819 195.688 544.11 195.935 544.466 195.935"/>
      <path id="path6018" style="fill:#ffffff;fill-opacity:1;fill-rule:nonzero;stroke:none" d="M 595.924 195.935 L 603.009 195.935 C 603.367 195.935 603.658 195.688 603.658 195.383 C 603.658 195.077 603.367 194.829 603.009 194.829 L 595.924 194.829 C 595.566 194.829 595.277 195.077 595.277 195.383 C 595.277 195.688 595.566 195.935 595.924 195.935"/>
      <path id="path6020" style="fill:#ffffff;fill-opacity:1;fill-rule:nonzero;stroke:none" d="M 509.841 63.291 C 510.465 70.226 513.228 81.106 520.351 90.615 C 527.47 100.123 538.977 108.255 557.022 109.624 L 557.269 109.449 L 557.063 109.24 C 539.164 107.876 527.805 99.84 520.732 90.407 C 513.664 80.975 510.911 70.143 510.292 63.262 L 510.049 63.083 L 509.841 63.291"/>
      <path id="path6022" style="fill:#b28653;fill-opacity:1;fill-rule:nonzero;stroke:none" d="M 516.359 75.455 C 515.505 76.944 513.39 77.567 513.39 77.567 C 513.39 77.567 512.661 75.759 513.523 74.266 C 514.379 72.768 516.495 72.151 516.495 72.151 C 516.495 72.151 517.222 73.955 516.359 75.455"/>
      <path id="path6024" style="fill:#b28653;fill-opacity:1;fill-rule:nonzero;stroke:none" d="M 509.266 76.838 C 510.808 77.86 513.026 77.618 513.026 77.618 C 513.026 77.618 512.743 75.722 511.198 74.706 C 509.656 73.686 507.437 73.926 507.437 73.926 C 507.437 73.926 507.719 75.823 509.266 76.838"/>
      <path id="path6026" style="fill:#b28653;fill-opacity:1;fill-rule:nonzero;stroke:none" d="M 509.607 70.64 C 509.988 72.272 511.848 73.334 511.848 73.334 C 511.848 73.334 513.091 71.744 512.71 70.11 C 512.33 68.478 510.469 67.422 510.469 67.422 C 510.469 67.422 509.228 69.006 509.607 70.64"/>
      <path id="path6028" style="fill:#b28653;fill-opacity:1;fill-rule:nonzero;stroke:none" d="M 510.94 81.363 C 512.612 82.223 514.783 81.762 514.783 81.762 C 514.783 81.762 514.243 79.906 512.57 79.05 C 510.9 78.192 508.725 78.654 508.725 78.654 C 508.725 78.654 509.266 80.506 510.94 81.363"/>
      <path id="path6030" style="fill:#b28653;fill-opacity:1;fill-rule:nonzero;stroke:none" d="M 517.784 79.316 C 517.098 80.876 515.056 81.658 515.056 81.658 C 515.056 81.658 514.136 79.915 514.829 78.36 C 515.524 76.802 517.568 76.022 517.568 76.022 C 517.568 76.022 518.482 77.762 517.784 79.316"/>
      <path id="path6032" style="fill:#b28653;fill-opacity:1;fill-rule:nonzero;stroke:none" d="M 512.801 85.471 C 514.648 86.004 516.657 85.155 516.657 85.155 C 516.657 85.155 515.66 83.448 513.809 82.911 C 511.961 82.382 509.954 83.231 509.954 83.231 C 509.954 83.231 510.952 84.94 512.801 85.471"/>
      <path id="path6034" style="fill:#b28653;fill-opacity:1;fill-rule:nonzero;stroke:none" d="M 519.734 82.734 C 519.026 84.283 516.972 85.05 516.972 85.05 C 516.972 85.05 516.076 83.304 516.784 81.751 C 517.496 80.2 519.541 79.432 519.541 79.432 C 519.541 79.432 520.44 81.18 519.734 82.734"/>
      <path id="path6036" style="fill:#b28653;fill-opacity:1;fill-rule:nonzero;stroke:none" d="M 515.253 89.339 C 517.104 89.863 519.107 89.015 519.107 89.015 C 519.107 89.015 518.106 87.304 516.252 86.778 C 514.4 86.251 512.4 87.102 512.4 87.102 C 512.4 87.102 513.399 88.808 515.253 89.339"/>
      <path id="path6038" style="fill:#b28653;fill-opacity:1;fill-rule:nonzero;stroke:none" d="M 522.175 86.582 C 521.474 88.138 519.424 88.907 519.424 88.907 C 519.424 88.907 518.521 87.163 519.221 85.608 C 519.934 84.055 521.973 83.283 521.973 83.283 C 521.973 83.283 522.879 85.032 522.175 86.582"/>
      <path id="path6040" style="fill:#b28653;fill-opacity:1;fill-rule:nonzero;stroke:none" d="M 518.314 93.459 C 520.227 93.795 522.097 92.75 522.097 92.75 C 522.097 92.75 520.869 91.154 518.96 90.815 C 517.048 90.479 515.177 91.527 515.177 91.527 C 515.177 91.527 516.405 93.123 518.314 93.459"/>
      <path id="path6042" style="fill:#b28653;fill-opacity:1;fill-rule:nonzero;stroke:none" d="M 524.812 90.032 C 524.331 91.644 522.401 92.616 522.401 92.616 C 522.401 92.616 521.261 90.971 521.745 89.359 C 522.233 87.747 524.159 86.775 524.159 86.775 C 524.159 86.775 525.298 88.418 524.812 90.032"/>
      <path id="path6044" style="fill:#b28653;fill-opacity:1;fill-rule:nonzero;stroke:none" d="M 521.857 97.467 C 523.802 97.651 525.543 96.456 525.543 96.456 C 525.543 96.456 524.144 94.967 522.204 94.783 C 520.262 94.599 518.521 95.794 518.521 95.794 C 518.521 95.794 519.918 97.283 521.857 97.467"/>
      <path id="path6046" style="fill:#b28653;fill-opacity:1;fill-rule:nonzero;stroke:none" d="M 527.946 93.532 C 527.639 95.172 525.831 96.298 525.831 96.298 C 525.831 96.298 524.515 94.755 524.824 93.111 C 525.126 91.462 526.938 90.339 526.938 90.339 C 526.938 90.339 528.253 91.883 527.946 93.532"/>
      <path id="path6048" style="fill:#b28653;fill-opacity:1;fill-rule:nonzero;stroke:none" d="M 525.292 100.834 C 527.238 100.896 528.879 99.6 528.879 99.6 C 528.879 99.6 527.361 98.198 525.41 98.136 C 523.457 98.07 521.815 99.368 521.815 99.368 C 521.815 99.368 523.337 100.768 525.292 100.834"/>
      <path id="path6050" style="fill:#b28653;fill-opacity:1;fill-rule:nonzero;stroke:none" d="M 531.03 96.534 C 530.863 98.19 529.153 99.422 529.153 99.422 C 529.153 99.422 527.714 97.964 527.88 96.3 C 528.041 94.644 529.753 93.412 529.753 93.412 C 529.753 93.412 531.196 94.871 531.03 96.534"/>
      <path id="path6052" style="fill:#b28653;fill-opacity:1;fill-rule:nonzero;stroke:none" d="M 529.657 103.875 C 531.6 103.762 533.076 102.324 533.076 102.324 C 533.076 102.324 531.387 101.07 529.433 101.187 C 527.492 101.298 526.017 102.738 526.017 102.738 C 526.017 102.738 527.708 103.99 529.657 103.875"/>
      <path id="path6054" style="fill:#b28653;fill-opacity:1;fill-rule:nonzero;stroke:none" d="M 534.829 99.083 C 534.87 100.746 533.32 102.124 533.32 102.124 C 533.32 102.124 531.705 100.807 531.666 99.139 C 531.621 97.476 533.17 96.096 533.17 96.096 C 533.17 96.096 534.787 97.416 534.829 99.083"/>
      <path id="path6056" style="fill:#b28653;fill-opacity:1;fill-rule:nonzero;stroke:none" d="M 533.611 106.332 C 535.55 106.124 536.924 104.624 536.924 104.624 C 536.924 104.624 535.162 103.446 533.222 103.652 C 531.289 103.854 529.906 105.36 529.906 105.36 C 529.906 105.36 531.674 106.533 533.611 106.332"/>
      <path id="path6058" style="fill:#b28653;fill-opacity:1;fill-rule:nonzero;stroke:none" d="M 538.471 101.302 C 538.617 102.962 537.16 104.411 537.16 104.411 C 537.16 104.411 535.466 103.17 535.316 101.506 C 535.168 99.847 536.628 98.396 536.628 98.396 C 536.628 98.396 538.325 99.642 538.471 101.302"/>
      <path id="path6060" style="fill:#b28653;fill-opacity:1;fill-rule:nonzero;stroke:none" d="M 537.76 108.645 C 539.689 108.411 541.039 106.892 541.039 106.892 C 541.039 106.892 539.255 105.739 537.318 105.971 C 535.387 106.201 534.04 107.725 534.04 107.725 C 534.04 107.725 535.824 108.875 537.76 108.645"/>
      <path id="path6062" style="fill:#b28653;fill-opacity:1;fill-rule:nonzero;stroke:none" d="M 542.522 103.55 C 542.701 105.205 541.27 106.676 541.27 106.676 C 541.27 106.676 539.553 105.455 539.372 103.796 C 539.192 102.139 540.623 100.67 540.623 100.67 C 540.623 100.67 542.343 101.89 542.522 103.55"/>
      <path id="path6064" style="fill:#ffffff;fill-opacity:1;fill-rule:nonzero;stroke:none" d="M 516.359 75.455 L 516.002 75.306 C 515.626 75.967 514.941 76.46 514.342 76.782 C 514.042 76.943 513.767 77.06 513.569 77.136 L 513.336 77.222 L 513.259 77.246 L 513.39 77.567 L 513.766 77.456 L 513.727 77.348 C 513.652 77.126 513.499 76.583 513.5 75.954 C 513.5 75.456 513.596 74.908 513.879 74.415 L 513.882 74.414 C 514.258 73.75 514.942 73.255 515.542 72.935 C 515.841 72.774 516.116 72.658 516.315 72.582 L 516.547 72.498 L 516.624 72.472 L 516.495 72.151 L 516.119 72.262 L 516.158 72.37 C 516.232 72.591 516.385 73.132 516.383 73.762 C 516.385 74.259 516.288 74.808 516.002 75.306 L 516.359 75.455 L 516.718 75.604 C 517.074 74.983 517.18 74.331 517.18 73.762 C 517.179 72.8 516.88 72.063 516.873 72.042 L 516.743 71.72 L 516.368 71.83 C 516.335 71.848 514.133 72.459 513.166 74.116 L 513.166 74.115 C 512.809 74.734 512.705 75.384 512.703 75.954 C 512.705 76.915 513.005 77.656 513.012 77.678 L 513.142 77.999 L 513.518 77.888 C 513.55 77.87 515.75 77.255 516.718 75.604 L 516.359 75.455"/>
      <path id="path6066" style="fill:#ffffff;fill-opacity:1;fill-rule:nonzero;stroke:none" d="M 509.266 76.838 L 509.023 77.106 C 510.192 77.875 511.629 77.98 512.438 77.983 C 512.82 77.983 513.064 77.956 513.078 77.955 L 513.472 77.912 L 513.422 77.575 C 513.406 77.544 513.147 75.579 511.442 74.438 C 510.272 73.67 508.829 73.564 508.023 73.562 C 507.643 73.562 507.401 73.587 507.387 73.588 L 506.992 73.631 L 507.043 73.968 C 507.057 73.999 507.314 75.966 509.025 77.107 L 509.023 77.106 L 509.266 76.838 L 509.509 76.568 C 508.821 76.12 508.392 75.448 508.145 74.882 C 508.019 74.6 507.942 74.346 507.893 74.164 L 507.845 73.952 L 507.832 73.883 L 507.437 73.926 L 507.487 74.263 L 507.623 74.252 C 507.717 74.247 507.854 74.24 508.023 74.24 C 508.744 74.238 510.028 74.355 510.954 74.975 L 510.959 74.978 L 510.956 74.975 C 511.642 75.424 512.072 76.096 512.318 76.663 C 512.444 76.944 512.522 77.199 512.57 77.38 L 512.621 77.592 L 512.632 77.662 L 513.026 77.618 L 512.977 77.282 L 512.839 77.292 C 512.745 77.298 512.608 77.303 512.438 77.303 C 511.716 77.307 510.436 77.19 509.51 76.57 L 509.509 76.568 L 509.266 76.838"/>
      <path id="path6068" style="fill:#ffffff;fill-opacity:1;fill-rule:nonzero;stroke:none" d="M 509.607 70.64 L 509.217 70.706 C 509.659 72.519 511.601 73.591 511.628 73.615 L 511.96 73.804 L 512.18 73.522 C 512.195 73.494 513.172 72.268 513.18 70.756 C 513.18 70.524 513.156 70.284 513.1 70.043 C 512.659 68.232 510.714 67.163 510.689 67.138 L 510.358 66.951 L 510.137 67.232 C 510.122 67.26 509.145 68.483 509.137 69.995 C 509.137 70.226 509.161 70.464 509.217 70.706 L 509.607 70.64 L 509.998 70.574 C 509.953 70.38 509.932 70.187 509.932 69.995 C 509.932 69.37 510.148 68.764 510.368 68.322 C 510.478 68.1 510.587 67.919 510.67 67.795 L 510.767 67.654 L 510.798 67.61 L 510.469 67.422 L 510.249 67.704 L 510.314 67.744 C 510.648 67.944 512.037 68.908 512.318 70.176 C 512.364 70.37 512.384 70.564 512.384 70.756 C 512.386 71.382 512.171 71.987 511.948 72.431 C 511.839 72.654 511.73 72.835 511.647 72.959 L 511.549 73.102 L 511.519 73.144 L 511.848 73.334 L 512.07 73.051 L 512.003 73.01 C 511.67 72.81 510.281 71.843 509.998 70.574 L 509.607 70.64"/>
      <path id="path6070" style="fill:#ffffff;fill-opacity:1;fill-rule:nonzero;stroke:none" d="M 510.94 81.363 L 510.736 81.654 C 511.634 82.114 512.628 82.224 513.411 82.224 C 514.25 82.224 514.858 82.096 514.88 82.092 L 515.266 82.01 L 515.171 81.68 C 515.15 81.651 514.625 79.724 512.777 78.758 C 511.88 78.3 510.887 78.191 510.104 78.19 C 509.261 78.191 508.65 78.32 508.629 78.324 L 508.242 78.406 L 508.338 78.736 C 508.357 78.764 508.884 80.687 510.736 81.654 L 510.94 81.363 L 511.146 81.072 C 510.401 80.692 509.883 80.068 509.559 79.531 C 509.397 79.263 509.284 79.019 509.213 78.843 L 509.134 78.639 L 509.112 78.571 L 508.725 78.654 L 508.821 78.983 L 508.908 78.967 C 509.091 78.935 509.545 78.87 510.104 78.87 C 510.802 78.868 511.653 78.972 512.365 79.34 C 513.108 79.719 513.626 80.344 513.95 80.883 C 514.111 81.151 514.225 81.395 514.297 81.571 L 514.375 81.776 L 514.397 81.844 L 514.783 81.762 L 514.688 81.432 L 514.601 81.448 C 514.421 81.48 513.968 81.546 513.411 81.546 C 512.716 81.547 511.862 81.442 511.146 81.072 L 510.94 81.363"/>
      <path id="path6072" style="fill:#ffffff;fill-opacity:1;fill-rule:nonzero;stroke:none" d="M 517.784 79.316 L 517.413 79.198 C 517.109 79.89 516.484 80.436 515.921 80.803 C 515.641 80.986 515.38 81.124 515.191 81.215 L 514.967 81.318 L 514.894 81.347 L 515.056 81.658 L 515.419 81.518 L 515.354 81.376 C 515.225 81.09 514.967 80.398 514.969 79.636 C 514.969 79.255 515.031 78.858 515.2 78.482 C 515.506 77.788 516.137 77.243 516.7 76.876 C 516.982 76.694 517.243 76.555 517.433 76.464 L 517.656 76.363 L 517.731 76.332 L 517.568 76.022 L 517.203 76.16 L 517.269 76.3 C 517.394 76.586 517.651 77.272 517.649 78.03 C 517.649 78.414 517.583 78.815 517.413 79.196 L 517.413 79.198 L 517.784 79.316 L 518.157 79.438 C 518.369 78.962 518.444 78.478 518.444 78.03 C 518.441 76.851 517.942 75.907 517.93 75.883 L 517.768 75.574 L 517.405 75.712 C 517.374 75.734 515.247 76.512 514.456 78.239 C 514.245 78.711 514.172 79.191 514.172 79.636 C 514.175 80.82 514.683 81.772 514.694 81.796 L 514.857 82.106 L 515.219 81.967 C 515.251 81.946 517.375 81.166 518.158 79.436 L 518.157 79.438 L 517.784 79.316"/>
      <path id="path6074" style="fill:#ffffff;fill-opacity:1;fill-rule:nonzero;stroke:none" d="M 512.801 85.471 L 512.673 85.792 C 513.164 85.934 513.659 85.986 514.126 85.986 C 515.605 85.983 516.804 85.47 516.833 85.46 L 517.189 85.308 L 517.013 85.004 C 516.986 84.979 515.988 83.2 513.938 82.59 C 513.448 82.45 512.958 82.398 512.494 82.398 C 511.009 82.402 509.806 82.918 509.776 82.927 L 509.42 83.079 L 509.598 83.383 C 509.623 83.408 510.625 85.188 512.675 85.792 L 512.801 85.471 L 512.928 85.148 C 512.106 84.915 511.442 84.4 510.99 83.935 C 510.764 83.703 510.592 83.486 510.476 83.328 L 510.348 83.142 L 510.309 83.08 L 509.954 83.231 L 510.131 83.536 L 510.171 83.519 C 510.386 83.434 511.389 83.075 512.494 83.078 C 512.888 83.078 513.292 83.122 513.683 83.234 C 514.505 83.47 515.169 83.986 515.621 84.451 C 515.846 84.683 516.019 84.902 516.133 85.059 L 516.261 85.244 L 516.301 85.307 L 516.657 85.155 L 516.48 84.851 L 516.438 84.867 C 516.227 84.952 515.225 85.31 514.126 85.307 C 513.728 85.307 513.322 85.262 512.928 85.148 L 512.801 85.471"/>
      <path id="path6076" style="fill:#ffffff;fill-opacity:1;fill-rule:nonzero;stroke:none" d="M 519.734 82.734 L 519.363 82.61 C 519.05 83.298 518.416 83.839 517.849 84.202 C 517.567 84.382 517.302 84.519 517.112 84.608 L 516.887 84.708 L 516.813 84.739 L 516.972 85.05 L 517.337 84.914 L 517.274 84.776 C 517.154 84.496 516.907 83.82 516.908 83.072 C 516.908 82.678 516.976 82.266 517.154 81.874 L 517.154 81.875 C 517.468 81.186 518.102 80.644 518.669 80.282 C 518.951 80.1 519.214 79.963 519.404 79.874 L 519.627 79.772 L 519.702 79.743 L 519.541 79.432 L 519.177 79.568 L 519.24 79.706 C 519.362 79.987 519.607 80.666 519.607 81.416 C 519.607 81.81 519.54 82.222 519.363 82.611 L 519.363 82.61 L 519.734 82.734 L 520.105 82.856 C 520.325 82.37 520.403 81.874 520.403 81.416 C 520.399 80.252 519.916 79.32 519.907 79.296 L 519.746 78.984 L 519.382 79.122 C 519.35 79.142 517.221 79.908 516.413 81.627 L 516.411 81.628 C 516.189 82.116 516.113 82.614 516.113 83.072 C 516.114 84.234 516.597 85.163 516.608 85.187 L 516.767 85.498 L 517.132 85.362 C 517.161 85.34 519.299 84.575 520.105 82.856 L 519.734 82.734"/>
      <path id="path6078" style="fill:#ffffff;fill-opacity:1;fill-rule:nonzero;stroke:none" d="M 515.253 89.339 L 515.129 89.66 C 515.613 89.798 516.102 89.85 516.563 89.85 C 518.049 89.846 519.254 89.33 519.283 89.32 L 519.641 89.168 L 519.463 88.864 C 519.437 88.839 518.434 87.055 516.377 86.455 C 515.891 86.318 515.403 86.266 514.942 86.266 C 513.456 86.27 512.251 86.788 512.222 86.798 L 511.866 86.95 L 512.044 87.254 C 512.07 87.279 513.071 89.056 515.126 89.66 L 515.253 89.339 L 515.38 89.016 C 514.554 88.783 513.889 88.268 513.436 87.804 C 513.211 87.572 513.038 87.355 512.923 87.198 L 512.795 87.012 L 512.757 86.951 L 512.4 87.102 L 512.578 87.406 L 512.618 87.39 C 512.832 87.304 513.836 86.943 514.942 86.946 C 515.333 86.946 515.736 86.99 516.125 87.1 C 516.949 87.332 517.616 87.846 518.069 88.311 C 518.295 88.543 518.468 88.762 518.584 88.919 L 518.712 89.106 L 518.75 89.167 L 519.107 89.015 L 518.931 88.711 L 518.889 88.728 C 518.675 88.812 517.67 89.172 516.563 89.17 C 516.171 89.17 515.767 89.127 515.38 89.016 L 515.253 89.339"/>
      <path id="path6080" style="fill:#ffffff;fill-opacity:1;fill-rule:nonzero;stroke:none" d="M 522.175 86.582 L 521.802 86.46 C 521.493 87.151 520.862 87.694 520.296 88.056 C 520.015 88.238 519.752 88.375 519.561 88.466 L 519.339 88.566 L 519.265 88.596 L 519.424 88.907 L 519.789 88.77 L 519.724 88.631 C 519.602 88.348 519.353 87.667 519.354 86.914 C 519.353 86.523 519.418 86.116 519.593 85.73 L 519.592 85.732 C 519.907 85.04 520.54 84.498 521.104 84.134 C 521.387 83.952 521.647 83.815 521.837 83.724 L 522.06 83.623 L 522.134 83.594 L 521.973 83.283 L 521.609 83.42 L 521.673 83.559 C 521.796 83.842 522.046 84.523 522.045 85.276 C 522.045 85.666 521.979 86.074 521.802 86.459 L 521.797 86.47 L 521.802 86.46 L 522.175 86.582 L 522.545 86.704 C 522.765 86.222 522.84 85.731 522.84 85.276 C 522.838 84.107 522.346 83.17 522.337 83.146 L 522.176 82.835 L 521.811 82.972 C 521.781 82.994 519.659 83.766 518.851 85.484 L 518.847 85.49 L 518.849 85.486 C 518.632 85.968 518.557 86.459 518.557 86.914 C 518.56 88.084 519.05 89.02 519.06 89.044 L 519.221 89.354 L 519.585 89.218 C 519.615 89.196 521.749 88.428 522.546 86.703 L 522.545 86.704 L 522.175 86.582"/>
      <path id="path6082" style="fill:#ffffff;fill-opacity:1;fill-rule:nonzero;stroke:none" d="M 518.314 93.459 L 518.235 93.791 C 518.529 93.843 518.819 93.866 519.102 93.866 C 520.859 93.859 522.284 93.047 522.317 93.034 L 522.649 92.847 L 522.43 92.563 C 522.401 92.542 521.16 90.874 519.041 90.483 C 518.748 90.431 518.457 90.41 518.174 90.41 C 516.418 90.416 514.99 91.23 514.96 91.243 L 514.627 91.428 L 514.844 91.712 C 514.873 91.735 516.114 93.402 518.235 93.791 L 518.314 93.459 L 518.396 93.126 C 517.548 92.979 516.818 92.536 516.303 92.12 C 516.048 91.912 515.846 91.714 515.71 91.57 L 515.557 91.398 L 515.51 91.34 L 515.177 91.527 L 515.396 91.811 L 515.445 91.783 C 515.702 91.648 516.898 91.084 518.174 91.088 C 518.408 91.088 518.645 91.107 518.88 91.148 C 519.728 91.296 520.459 91.739 520.971 92.156 C 521.228 92.363 521.429 92.562 521.565 92.707 L 521.718 92.879 L 521.765 92.936 L 522.097 92.75 L 521.879 92.466 L 521.829 92.492 C 521.575 92.628 520.377 93.191 519.102 93.186 C 518.867 93.186 518.632 93.168 518.396 93.126 L 518.314 93.459"/>
      <path id="path6084" style="fill:#ffffff;fill-opacity:1;fill-rule:nonzero;stroke:none" d="M 524.812 90.032 L 524.427 89.948 C 524.215 90.664 523.662 91.267 523.151 91.684 C 522.897 91.894 522.654 92.056 522.477 92.164 L 522.269 92.287 L 522.199 92.324 L 522.401 92.616 L 522.744 92.444 L 522.716 92.403 C 522.583 92.198 522.02 91.235 522.022 90.202 C 522.022 89.95 522.055 89.695 522.13 89.444 C 522.346 88.728 522.899 88.126 523.41 87.707 C 523.667 87.499 523.909 87.336 524.084 87.227 L 524.294 87.104 L 524.362 87.067 L 524.159 86.775 L 523.817 86.948 L 523.844 86.988 C 523.977 87.194 524.539 88.154 524.535 89.188 C 524.535 89.439 524.502 89.695 524.427 89.948 L 524.812 90.032 L 525.199 90.116 C 525.293 89.802 525.331 89.488 525.331 89.188 C 525.325 87.778 524.516 86.63 524.502 86.603 L 524.3 86.31 L 523.957 86.483 C 523.929 86.507 521.922 87.486 521.36 89.274 C 521.265 89.588 521.228 89.9 521.228 90.202 C 521.234 91.612 522.045 92.763 522.059 92.79 L 522.262 93.082 L 522.604 92.91 C 522.631 92.886 524.643 91.906 525.199 90.116 L 524.812 90.032"/>
      <path id="path6086" style="fill:#ffffff;fill-opacity:1;fill-rule:nonzero;stroke:none" d="M 521.857 97.467 L 521.814 97.804 C 521.966 97.819 522.12 97.826 522.27 97.826 C 524.221 97.816 525.759 96.736 525.794 96.72 L 526.103 96.508 L 525.855 96.243 C 525.823 96.224 524.402 94.666 522.247 94.446 C 522.095 94.431 521.942 94.424 521.79 94.424 C 519.84 94.435 518.305 95.515 518.271 95.53 L 517.961 95.742 L 518.21 96.006 C 518.242 96.026 519.659 97.584 521.811 97.804 L 521.857 97.467 L 521.901 97.13 C 521.04 97.05 520.263 96.667 519.707 96.294 C 519.429 96.108 519.207 95.927 519.055 95.794 L 518.885 95.635 L 518.832 95.582 L 518.521 95.794 L 518.771 96.059 L 518.825 96.023 C 519.104 95.842 520.403 95.096 521.79 95.104 L 522.161 95.122 C 523.021 95.2 523.798 95.583 524.356 95.956 C 524.634 96.142 524.857 96.323 525.009 96.456 L 525.18 96.615 L 525.233 96.668 L 525.543 96.456 L 525.295 96.191 L 525.238 96.227 C 524.961 96.408 523.661 97.154 522.27 97.147 L 521.901 97.13 L 521.857 97.467"/>
      <path id="path6088" style="fill:#ffffff;fill-opacity:1;fill-rule:nonzero;stroke:none" d="M 527.946 93.532 L 527.553 93.478 C 527.418 94.207 526.934 94.851 526.471 95.308 C 526.24 95.538 526.019 95.719 525.855 95.842 L 525.66 95.98 L 525.597 96.023 L 525.831 96.298 L 526.153 96.098 L 526.115 96.052 C 525.931 95.824 525.168 94.758 525.175 93.623 C 525.175 93.471 525.187 93.318 525.217 93.166 L 525.217 93.163 C 525.349 92.431 525.833 91.786 526.296 91.328 C 526.526 91.099 526.748 90.918 526.912 90.795 L 527.107 90.656 L 527.17 90.614 L 526.938 90.339 L 526.615 90.539 L 526.652 90.584 C 526.837 90.812 527.6 91.882 527.594 93.02 C 527.594 93.172 527.581 93.326 527.553 93.479 L 527.946 93.532 L 528.339 93.584 C 528.373 93.394 528.391 93.206 528.391 93.02 C 528.379 91.436 527.275 90.167 527.259 90.139 L 527.025 89.864 L 526.703 90.064 C 526.678 90.09 524.784 91.228 524.431 93.059 L 524.431 93.058 C 524.395 93.248 524.378 93.438 524.378 93.623 C 524.389 95.202 525.492 96.468 525.509 96.498 L 525.744 96.772 L 526.066 96.572 C 526.089 96.546 527.98 95.407 528.339 93.586 L 527.946 93.532"/>
      <path id="path6090" style="fill:#ffffff;fill-opacity:1;fill-rule:nonzero;stroke:none" d="M 525.292 100.834 L 525.276 101.172 L 525.429 101.175 C 527.52 101.162 529.114 99.866 529.148 99.85 L 529.441 99.619 L 529.17 99.371 C 529.138 99.352 527.594 97.882 525.425 97.796 L 525.264 97.794 C 523.171 97.807 521.579 99.103 521.544 99.119 L 521.252 99.35 L 521.524 99.599 C 521.557 99.616 523.104 101.084 525.276 101.172 L 525.292 100.834 L 525.308 100.494 C 524.439 100.467 523.63 100.132 523.043 99.795 C 522.749 99.626 522.512 99.459 522.349 99.335 L 522.165 99.187 L 522.107 99.138 L 521.815 99.368 L 522.087 99.618 L 522.144 99.574 C 522.435 99.355 523.793 98.463 525.264 98.472 L 525.393 98.475 C 526.26 98.502 527.067 98.835 527.653 99.174 C 527.946 99.342 528.182 99.51 528.344 99.634 L 528.528 99.78 L 528.586 99.831 L 528.879 99.6 L 528.608 99.351 L 528.548 99.395 C 528.257 99.614 526.898 100.506 525.429 100.496 L 525.308 100.494 L 525.292 100.834"/>
      <path id="path6092" style="fill:#ffffff;fill-opacity:1;fill-rule:nonzero;stroke:none" d="M 531.03 96.534 L 530.633 96.504 C 530.562 97.239 530.133 97.911 529.71 98.396 C 529.499 98.638 529.292 98.832 529.139 98.964 L 528.958 99.115 L 528.895 99.162 L 529.153 99.422 L 529.456 99.202 L 529.411 99.154 C 529.185 98.912 528.256 97.783 528.264 96.571 L 528.276 96.33 L 528.276 96.328 C 528.345 95.594 528.773 94.923 529.197 94.438 C 529.408 94.196 529.615 94.002 529.767 93.87 L 529.949 93.719 L 530.011 93.672 L 529.753 93.412 L 529.451 93.631 L 529.495 93.68 C 529.722 93.922 530.655 95.052 530.646 96.263 L 530.633 96.504 L 531.03 96.534 L 531.427 96.562 L 531.441 96.263 C 531.429 94.555 530.076 93.223 530.058 93.194 L 529.802 92.934 L 529.497 93.152 C 529.475 93.18 527.68 94.431 527.483 96.272 L 527.483 96.271 L 527.469 96.571 C 527.482 98.28 528.829 99.611 528.848 99.64 L 529.105 99.899 L 529.41 99.68 C 529.432 99.654 531.224 98.403 531.427 96.562 L 531.03 96.534"/>
      <path id="path6094" style="fill:#ffffff;fill-opacity:1;fill-rule:nonzero;stroke:none" d="M 529.657 103.875 L 529.683 104.214 C 531.844 104.072 533.343 102.567 533.376 102.548 L 533.638 102.292 L 533.338 102.068 C 533.304 102.052 531.729 100.851 529.692 100.839 L 529.405 100.848 C 527.248 100.987 525.749 102.495 525.717 102.514 L 525.454 102.771 L 525.756 102.994 C 525.789 103.01 527.369 104.211 529.401 104.223 L 529.683 104.214 L 529.657 103.875 L 529.63 103.536 L 529.401 103.543 C 528.581 103.544 527.791 103.283 527.21 103.012 C 526.92 102.878 526.682 102.742 526.521 102.642 L 526.335 102.522 L 526.278 102.482 L 526.017 102.738 L 526.317 102.96 L 526.372 102.91 C 526.648 102.652 527.953 101.6 529.46 101.526 L 529.692 101.519 C 530.516 101.518 531.305 101.779 531.885 102.05 C 532.174 102.184 532.41 102.32 532.573 102.42 L 532.757 102.54 L 532.814 102.58 L 533.076 102.324 L 532.777 102.1 L 532.72 102.152 C 532.444 102.408 531.139 103.459 529.63 103.536 L 529.657 103.875"/>
      <path id="path6096" style="fill:#ffffff;fill-opacity:1;fill-rule:nonzero;stroke:none" d="M 534.829 99.083 L 534.43 99.09 L 534.43 99.148 C 534.432 99.874 534.088 100.567 533.733 101.075 C 533.555 101.328 533.377 101.536 533.244 101.678 L 533.086 101.839 L 533.033 101.89 L 533.32 102.124 L 533.596 101.879 L 533.538 101.83 C 533.25 101.583 532.082 100.427 532.064 99.131 L 532.063 99.066 C 532.062 98.342 532.404 97.651 532.76 97.144 C 532.936 96.891 533.114 96.684 533.248 96.543 L 533.405 96.382 L 533.459 96.332 L 533.17 96.096 L 532.896 96.342 L 532.954 96.392 C 533.241 96.639 534.41 97.795 534.43 99.09 L 534.829 99.083 L 535.226 99.076 C 535.162 97.223 533.466 95.88 533.446 95.851 L 533.159 95.618 L 532.883 95.862 C 532.865 95.891 531.285 97.255 531.267 99.066 L 531.267 99.147 L 531.267 99.146 C 531.33 100.999 533.025 102.342 533.046 102.37 L 533.332 102.604 L 533.609 102.36 C 533.628 102.331 535.21 100.962 535.227 99.148 L 535.226 99.076 L 534.829 99.083"/>
      <path id="path6098" style="fill:#ffffff;fill-opacity:1;fill-rule:nonzero;stroke:none" d="M 533.611 106.332 L 533.662 106.668 C 535.812 106.423 537.207 104.854 537.238 104.834 L 537.483 104.566 L 537.169 104.356 C 537.137 104.342 535.612 103.298 533.686 103.288 C 533.517 103.288 533.347 103.296 533.174 103.315 C 531.026 103.555 529.625 105.131 529.594 105.151 L 529.347 105.419 L 529.663 105.628 C 529.695 105.643 531.228 106.685 533.155 106.695 C 533.32 106.695 533.489 106.687 533.66 106.668 L 533.611 106.332 L 533.563 105.995 L 533.155 106.016 C 532.369 106.016 531.608 105.788 531.05 105.552 C 530.77 105.436 530.543 105.317 530.385 105.231 L 530.206 105.127 L 530.151 105.092 L 529.906 105.36 L 530.221 105.569 L 530.272 105.515 C 530.533 105.245 531.769 104.135 533.271 103.99 L 533.686 103.967 C 534.471 103.967 535.228 104.195 535.785 104.431 C 536.063 104.548 536.29 104.666 536.446 104.752 L 536.624 104.856 L 536.679 104.891 L 536.924 104.624 L 536.611 104.415 L 536.559 104.468 C 536.301 104.738 535.069 105.844 533.563 105.995 L 533.611 106.332"/>
      <path id="path6100" style="fill:#ffffff;fill-opacity:1;fill-rule:nonzero;stroke:none" d="M 538.471 101.302 L 538.074 101.327 L 538.082 101.538 C 538.083 102.235 537.782 102.906 537.469 103.399 C 537.315 103.644 537.159 103.846 537.043 103.984 L 536.904 104.142 L 536.858 104.19 L 537.16 104.411 L 537.42 104.154 L 537.359 104.107 C 537.057 103.874 535.817 102.774 535.714 101.48 L 535.704 101.267 C 535.702 100.572 536.004 99.902 536.316 99.41 C 536.473 99.163 536.629 98.962 536.745 98.824 L 536.882 98.667 L 536.929 98.618 L 536.628 98.396 L 536.368 98.655 L 536.429 98.702 C 536.732 98.935 537.973 100.038 538.074 101.327 L 538.471 101.302 L 538.869 101.276 C 538.687 99.431 536.909 98.167 536.887 98.139 L 536.586 97.918 L 536.325 98.176 C 536.307 98.204 534.921 99.546 534.909 101.267 L 534.919 101.532 C 535.104 103.379 536.879 104.642 536.901 104.668 L 537.202 104.889 L 537.462 104.632 C 537.481 104.603 538.865 103.262 538.879 101.538 L 538.869 101.276 L 538.471 101.302"/>
      <path id="path6102" style="fill:#ffffff;fill-opacity:1;fill-rule:nonzero;stroke:none" d="M 537.76 108.645 L 537.815 108.981 C 539.958 108.705 541.325 107.117 541.356 107.096 L 541.597 106.825 L 541.28 106.621 C 541.247 106.607 539.737 105.609 537.844 105.6 C 537.655 105.6 537.459 105.611 537.263 105.633 C 535.118 105.907 533.752 107.5 533.721 107.52 L 533.482 107.791 L 533.799 107.996 C 533.831 108.011 535.343 109.005 537.237 109.015 C 537.426 109.015 537.619 109.004 537.815 108.981 L 537.76 108.645 L 537.704 108.308 C 537.548 108.327 537.392 108.336 537.237 108.336 C 536.461 108.336 535.714 108.117 535.163 107.893 C 534.889 107.781 534.664 107.669 534.509 107.587 L 534.333 107.487 L 534.279 107.453 L 534.04 107.725 L 534.357 107.929 L 534.408 107.875 C 534.661 107.603 535.871 106.476 537.374 106.307 C 537.53 106.288 537.689 106.279 537.844 106.279 C 538.618 106.277 539.367 106.497 539.915 106.721 C 540.191 106.833 540.416 106.947 540.568 107.029 L 540.745 107.129 L 540.798 107.163 L 541.039 106.892 L 540.722 106.687 L 540.67 106.741 C 540.417 107.013 539.204 108.137 537.704 108.308 L 537.76 108.645"/>
      <path id="path6104" style="fill:#ffffff;fill-opacity:1;fill-rule:nonzero;stroke:none" d="M 542.522 103.55 L 542.127 103.58 L 542.139 103.839 C 542.141 104.526 541.85 105.188 541.551 105.676 C 541.401 105.919 541.251 106.119 541.14 106.255 L 541.008 106.411 L 540.964 106.459 L 541.27 106.676 L 541.524 106.415 L 541.462 106.369 C 541.156 106.14 539.897 105.055 539.766 103.764 L 539.755 103.506 C 539.752 102.819 540.042 102.156 540.342 101.67 C 540.491 101.426 540.641 101.227 540.751 101.09 L 540.885 100.935 L 540.928 100.886 L 540.623 100.67 L 540.369 100.93 L 540.43 100.976 C 540.737 101.206 541.998 102.29 542.127 103.58 L 542.522 103.55 L 542.919 103.518 C 542.7 101.674 540.9 100.435 540.876 100.408 L 540.57 100.191 L 540.317 100.452 C 540.299 100.48 538.97 101.812 538.958 103.506 L 538.974 103.827 C 539.195 105.669 540.992 106.909 541.016 106.937 L 541.321 107.155 L 541.575 106.893 C 541.594 106.864 542.921 105.533 542.936 103.839 L 542.919 103.518 L 542.522 103.55"/>
      <path id="path6106" style="fill:#ffffff;fill-opacity:1;fill-rule:nonzero;stroke:none" d="M 637.186 63.262 C 636.565 70.143 633.812 80.975 626.744 90.407 C 619.672 99.84 608.311 107.876 590.414 109.24 L 590.208 109.449 L 590.453 109.624 C 608.501 108.255 620.006 100.123 627.126 90.615 C 634.248 81.106 637.011 70.226 637.636 63.291 L 637.428 63.083 L 637.186 63.262"/>
      <path id="path6108" style="fill:#b28653;fill-opacity:1;fill-rule:nonzero;stroke:none" d="M 631.117 75.455 C 631.973 76.944 634.088 77.567 634.088 77.567 C 634.088 77.567 634.815 75.759 633.953 74.266 C 633.098 72.768 630.981 72.151 630.981 72.151 C 630.981 72.151 630.255 73.955 631.117 75.455"/>
      <path id="path6110" style="fill:#b28653;fill-opacity:1;fill-rule:nonzero;stroke:none" d="M 638.211 76.838 C 636.668 77.86 634.45 77.618 634.45 77.618 C 634.45 77.618 634.735 75.722 636.277 74.706 C 637.82 73.686 640.041 73.926 640.041 73.926 C 640.041 73.926 639.757 75.823 638.211 76.838"/>
      <path id="path6112" style="fill:#b28653;fill-opacity:1;fill-rule:nonzero;stroke:none" d="M 637.868 70.64 C 637.489 72.272 635.628 73.334 635.628 73.334 C 635.628 73.334 634.384 71.744 634.767 70.11 C 635.148 68.478 637.009 67.422 637.009 67.422 C 637.009 67.422 638.248 69.006 637.868 70.64"/>
      <path id="path6114" style="fill:#b28653;fill-opacity:1;fill-rule:nonzero;stroke:none" d="M 636.535 81.363 C 634.863 82.223 632.693 81.762 632.693 81.762 C 632.693 81.762 633.234 79.906 634.906 79.05 C 636.578 78.192 638.75 78.654 638.75 78.654 C 638.75 78.654 638.211 80.506 636.535 81.363"/>
      <path id="path6116" style="fill:#b28653;fill-opacity:1;fill-rule:nonzero;stroke:none" d="M 629.693 79.316 C 630.379 80.876 632.421 81.658 632.421 81.658 C 632.421 81.658 633.34 79.915 632.648 78.36 C 631.955 76.802 629.908 76.022 629.908 76.022 C 629.908 76.022 628.994 77.762 629.693 79.316"/>
      <path id="path6118" style="fill:#b28653;fill-opacity:1;fill-rule:nonzero;stroke:none" d="M 634.675 85.471 C 632.827 86.004 630.82 85.155 630.82 85.155 C 630.82 85.155 631.816 83.448 633.667 82.911 C 635.517 82.382 637.524 83.231 637.524 83.231 C 637.524 83.231 636.527 84.94 634.675 85.471"/>
      <path id="path6120" style="fill:#b28653;fill-opacity:1;fill-rule:nonzero;stroke:none" d="M 627.742 82.734 C 628.45 84.283 630.504 85.05 630.504 85.05 C 630.504 85.05 631.401 83.304 630.694 81.751 C 629.982 80.2 627.935 79.432 627.935 79.432 C 627.935 79.432 627.037 81.18 627.742 82.734"/>
      <path id="path6122" style="fill:#b28653;fill-opacity:1;fill-rule:nonzero;stroke:none" d="M 632.223 89.339 C 630.372 89.863 628.369 89.015 628.369 89.015 C 628.369 89.015 629.372 87.304 631.224 86.778 C 633.077 86.251 635.077 87.102 635.077 87.102 C 635.077 87.102 634.078 88.808 632.223 89.339"/>
      <path id="path6124" style="fill:#b28653;fill-opacity:1;fill-rule:nonzero;stroke:none" d="M 625.302 86.582 C 626.003 88.138 628.052 88.907 628.052 88.907 C 628.052 88.907 628.957 87.163 628.256 85.608 C 627.544 84.055 625.505 83.283 625.505 83.283 C 625.505 83.283 624.597 85.032 625.302 86.582"/>
      <path id="path6126" style="fill:#b28653;fill-opacity:1;fill-rule:nonzero;stroke:none" d="M 629.163 93.459 C 627.249 93.795 625.38 92.75 625.38 92.75 C 625.38 92.75 626.607 91.154 628.516 90.815 C 630.429 90.479 632.299 91.527 632.299 91.527 C 632.299 91.527 631.071 93.123 629.163 93.459"/>
      <path id="path6128" style="fill:#b28653;fill-opacity:1;fill-rule:nonzero;stroke:none" d="M 622.664 90.032 C 623.147 91.644 625.075 92.616 625.075 92.616 C 625.075 92.616 626.216 90.971 625.729 89.359 C 625.243 87.747 623.316 86.775 623.316 86.775 C 623.316 86.775 622.178 88.418 622.664 90.032"/>
      <path id="path6130" style="fill:#b28653;fill-opacity:1;fill-rule:nonzero;stroke:none" d="M 625.621 97.467 C 623.677 97.651 621.933 96.456 621.933 96.456 C 621.933 96.456 623.333 94.967 625.271 94.783 C 627.215 94.599 628.957 95.794 628.957 95.794 C 628.957 95.794 627.56 97.283 625.621 97.467"/>
      <path id="path6132" style="fill:#b28653;fill-opacity:1;fill-rule:nonzero;stroke:none" d="M 619.531 93.532 C 619.837 95.172 621.646 96.298 621.646 96.298 C 621.646 96.298 622.961 94.755 622.655 93.111 C 622.35 91.462 620.539 90.339 620.539 90.339 C 620.539 90.339 619.223 91.883 619.531 93.532"/>
      <path id="path6134" style="fill:#b28653;fill-opacity:1;fill-rule:nonzero;stroke:none" d="M 622.185 100.834 C 620.239 100.896 618.599 99.6 618.599 99.6 C 618.599 99.6 620.115 98.198 622.068 98.136 C 624.019 98.07 625.66 99.368 625.66 99.368 C 625.66 99.368 624.141 100.768 622.185 100.834"/>
      <path id="path6136" style="fill:#b28653;fill-opacity:1;fill-rule:nonzero;stroke:none" d="M 616.447 96.534 C 616.612 98.19 618.323 99.422 618.323 99.422 C 618.323 99.422 619.763 97.964 619.597 96.3 C 619.435 94.644 617.723 93.412 617.723 93.412 C 617.723 93.412 616.283 94.871 616.447 96.534"/>
      <path id="path6138" style="fill:#b28653;fill-opacity:1;fill-rule:nonzero;stroke:none" d="M 617.821 103.875 C 615.876 103.762 614.399 102.324 614.399 102.324 C 614.399 102.324 616.09 101.07 618.042 101.187 C 619.984 101.298 621.459 102.738 621.459 102.738 C 621.459 102.738 619.768 103.99 617.821 103.875"/>
      <path id="path6140" style="fill:#b28653;fill-opacity:1;fill-rule:nonzero;stroke:none" d="M 612.647 99.083 C 612.608 100.746 614.155 102.124 614.155 102.124 C 614.155 102.124 615.772 100.807 615.81 99.139 C 615.856 97.476 614.307 96.096 614.307 96.096 C 614.307 96.096 612.692 97.416 612.647 99.083"/>
      <path id="path6142" style="fill:#b28653;fill-opacity:1;fill-rule:nonzero;stroke:none" d="M 613.865 106.332 C 611.925 106.124 610.554 104.624 610.554 104.624 C 610.554 104.624 612.313 103.446 614.254 103.652 C 616.189 103.854 617.569 105.36 617.569 105.36 C 617.569 105.36 615.804 106.533 613.865 106.332"/>
      <path id="path6144" style="fill:#b28653;fill-opacity:1;fill-rule:nonzero;stroke:none" d="M 609.005 101.302 C 608.859 102.962 610.317 104.411 610.317 104.411 C 610.317 104.411 612.01 103.17 612.162 101.506 C 612.308 99.847 610.849 98.396 610.849 98.396 C 610.849 98.396 609.152 99.642 609.005 101.302"/>
      <path id="path6146" style="fill:#b28653;fill-opacity:1;fill-rule:nonzero;stroke:none" d="M 609.716 108.645 C 607.788 108.411 606.438 106.892 606.438 106.892 C 606.438 106.892 608.22 105.739 610.158 105.971 C 612.089 106.201 613.437 107.725 613.437 107.725 C 613.437 107.725 611.652 108.875 609.716 108.645"/>
      <path id="path6148" style="fill:#b28653;fill-opacity:1;fill-rule:nonzero;stroke:none" d="M 604.954 103.55 C 604.775 105.205 606.208 106.676 606.208 106.676 C 606.208 106.676 607.925 105.455 608.104 103.796 C 608.283 102.139 606.853 100.67 606.853 100.67 C 606.853 100.67 605.136 101.89 604.954 103.55"/>
      <path id="path6150" style="fill:#ffffff;fill-opacity:1;fill-rule:nonzero;stroke:none" d="M 631.117 75.455 L 630.759 75.604 C 631.727 77.254 633.925 77.87 633.958 77.888 L 634.334 77.999 L 634.464 77.678 C 634.472 77.656 634.772 76.915 634.772 75.954 C 634.772 75.384 634.665 74.734 634.31 74.115 L 634.31 74.116 C 633.343 72.459 631.141 71.848 631.108 71.83 L 630.732 71.72 L 630.604 72.042 C 630.596 72.063 630.297 72.8 630.296 73.762 C 630.297 74.331 630.403 74.983 630.759 75.604 L 631.117 75.455 L 631.473 75.306 C 631.188 74.808 631.093 74.259 631.093 73.762 C 631.093 73.342 631.16 72.962 631.228 72.688 C 631.261 72.552 631.295 72.443 631.318 72.37 L 631.357 72.262 L 630.981 72.151 L 630.851 72.472 L 630.929 72.498 C 631.312 72.618 632.944 73.248 633.595 74.414 L 633.597 74.415 C 633.881 74.908 633.976 75.456 633.976 75.954 C 633.976 76.372 633.909 76.755 633.842 77.028 C 633.808 77.164 633.775 77.275 633.75 77.348 L 633.71 77.456 L 634.088 77.567 L 634.217 77.246 L 634.14 77.222 C 633.757 77.099 632.126 76.466 631.473 75.306 L 631.117 75.455"/>
      <path id="path6152" style="fill:#ffffff;fill-opacity:1;fill-rule:nonzero;stroke:none" d="M 638.211 76.838 L 637.966 76.57 C 637.042 77.188 635.762 77.307 635.039 77.303 C 634.868 77.303 634.731 77.298 634.637 77.292 L 634.5 77.282 L 634.45 77.618 L 634.844 77.662 L 634.856 77.592 C 634.919 77.247 635.316 75.755 636.521 74.975 C 637.449 74.355 638.733 74.238 639.455 74.24 C 639.624 74.24 639.761 74.247 639.854 74.252 L 639.991 74.263 L 640.041 73.926 L 639.645 73.883 L 639.634 73.952 C 639.57 74.296 639.175 75.79 637.967 76.568 L 637.966 76.57 L 638.211 76.838 L 638.453 77.107 C 640.161 75.966 640.421 73.999 640.435 73.968 L 640.487 73.631 L 640.091 73.588 C 640.077 73.587 639.835 73.562 639.455 73.562 C 638.649 73.564 637.205 73.67 636.033 74.438 L 636.034 74.438 C 634.329 75.579 634.069 77.544 634.055 77.575 L 634.003 77.912 L 634.398 77.955 C 634.412 77.956 634.656 77.983 635.039 77.983 C 635.847 77.98 637.286 77.875 638.454 77.106 L 638.453 77.107 L 638.211 76.838"/>
      <path id="path6154" style="fill:#ffffff;fill-opacity:1;fill-rule:nonzero;stroke:none" d="M 637.868 70.64 L 637.478 70.574 C 637.311 71.299 636.798 71.926 636.316 72.367 C 636.075 72.588 635.843 72.762 635.675 72.878 L 635.475 73.01 L 635.407 73.051 L 635.628 73.334 L 635.959 73.144 L 635.926 73.1 C 635.764 72.88 635.086 71.851 635.092 70.756 C 635.092 70.563 635.111 70.37 635.156 70.176 C 635.325 69.452 635.837 68.826 636.321 68.386 C 636.563 68.166 636.794 67.992 636.963 67.876 L 637.163 67.744 L 637.23 67.704 L 637.009 67.422 L 636.678 67.61 L 636.711 67.654 C 636.873 67.872 637.549 68.899 637.544 69.994 C 637.544 70.186 637.524 70.38 637.478 70.574 L 637.868 70.64 L 638.26 70.706 C 638.316 70.464 638.34 70.226 638.34 69.994 C 638.331 68.483 637.356 67.26 637.341 67.232 L 637.121 66.951 L 636.789 67.138 C 636.764 67.163 634.819 68.232 634.376 70.043 C 634.32 70.284 634.295 70.524 634.295 70.756 C 634.303 72.268 635.283 73.494 635.298 73.522 L 635.519 73.804 L 635.85 73.615 C 635.875 73.591 637.819 72.519 638.26 70.706 L 637.868 70.64"/>
      <path id="path6156" style="fill:#ffffff;fill-opacity:1;fill-rule:nonzero;stroke:none" d="M 636.535 81.363 L 636.33 81.072 C 635.614 81.442 634.76 81.547 634.065 81.546 C 633.695 81.546 633.37 81.516 633.142 81.488 L 632.876 81.448 L 632.79 81.432 L 632.693 81.762 L 633.081 81.844 L 633.103 81.776 C 633.211 81.44 633.808 79.996 635.112 79.34 C 635.825 78.972 636.677 78.868 637.372 78.87 C 637.745 78.87 638.072 78.899 638.302 78.927 L 638.569 78.967 L 638.655 78.983 L 638.75 78.654 L 638.364 78.571 L 638.342 78.639 C 638.234 78.974 637.638 80.415 636.33 81.072 L 636.535 81.363 L 636.741 81.654 C 638.593 80.687 639.118 78.764 639.138 78.735 L 639.233 78.406 L 638.847 78.324 C 638.827 78.32 638.215 78.191 637.372 78.19 C 636.589 78.191 635.598 78.3 634.702 78.758 C 632.851 79.724 632.326 81.651 632.307 81.68 L 632.212 82.01 L 632.598 82.092 C 632.618 82.096 633.226 82.224 634.065 82.224 C 634.848 82.224 635.842 82.114 636.741 81.654 L 636.535 81.363"/>
      <path id="path6158" style="fill:#ffffff;fill-opacity:1;fill-rule:nonzero;stroke:none" d="M 629.693 79.316 L 629.32 79.436 C 630.1 81.166 632.228 81.946 632.257 81.967 L 632.621 82.106 L 632.784 81.796 C 632.795 81.772 633.301 80.822 633.305 79.638 C 633.305 79.192 633.231 78.712 633.02 78.24 C 632.231 76.512 630.103 75.734 630.071 75.712 L 629.709 75.574 L 629.546 75.883 C 629.536 75.907 629.035 76.85 629.032 78.027 C 629.032 78.476 629.107 78.962 629.321 79.438 L 629.32 79.436 L 629.693 79.316 L 630.063 79.195 C 629.893 78.814 629.827 78.412 629.827 78.027 C 629.827 77.523 629.94 77.05 630.052 76.706 C 630.109 76.535 630.165 76.395 630.207 76.3 L 630.273 76.16 L 629.908 76.022 L 629.747 76.332 L 629.822 76.363 C 630.19 76.512 631.749 77.267 632.276 78.482 C 632.444 78.859 632.508 79.256 632.508 79.638 C 632.509 80.144 632.395 80.622 632.28 80.968 C 632.223 81.14 632.167 81.282 632.125 81.378 L 632.058 81.518 L 632.421 81.658 L 632.584 81.347 L 632.51 81.318 C 632.142 81.167 630.586 80.411 630.065 79.198 L 630.063 79.195 L 629.693 79.316"/>
      <path id="path6160" style="fill:#ffffff;fill-opacity:1;fill-rule:nonzero;stroke:none" d="M 634.675 85.471 L 634.547 85.148 C 634.154 85.262 633.747 85.307 633.352 85.307 C 632.723 85.307 632.126 85.192 631.69 85.076 C 631.473 85.019 631.296 84.962 631.176 84.919 L 631.038 84.867 L 630.996 84.851 L 630.82 85.155 L 631.176 85.307 L 631.215 85.244 C 631.406 84.938 632.353 83.64 633.795 83.232 L 633.792 83.234 C 634.184 83.122 634.589 83.078 634.983 83.078 C 635.614 83.076 636.214 83.192 636.65 83.308 C 636.869 83.367 637.047 83.426 637.168 83.468 L 637.305 83.519 L 637.347 83.536 L 637.524 83.231 L 637.168 83.08 L 637.13 83.142 C 636.938 83.45 635.991 84.747 634.548 85.148 L 634.675 85.471 L 634.801 85.792 C 636.854 85.188 637.854 83.408 637.88 83.383 L 638.058 83.079 L 637.7 82.927 C 637.672 82.918 636.467 82.402 634.983 82.398 C 634.52 82.398 634.028 82.45 633.54 82.59 L 633.539 82.59 C 631.488 83.2 630.49 84.979 630.464 85.004 L 630.286 85.308 L 630.643 85.46 C 630.672 85.47 631.871 85.983 633.352 85.986 C 633.817 85.986 634.31 85.934 634.803 85.792 L 634.675 85.471"/>
      <path id="path6162" style="fill:#ffffff;fill-opacity:1;fill-rule:nonzero;stroke:none" d="M 627.742 82.734 L 627.371 82.856 C 628.176 84.575 630.315 85.34 630.344 85.362 L 630.709 85.498 L 630.868 85.186 C 630.879 85.163 631.36 84.234 631.364 83.072 C 631.364 82.614 631.287 82.116 631.065 81.628 L 631.064 81.627 C 630.258 79.908 628.125 79.142 628.094 79.122 L 627.728 78.984 L 627.569 79.296 C 627.56 79.32 627.077 80.252 627.074 81.416 C 627.074 81.874 627.151 82.37 627.371 82.856 L 627.379 82.875 L 627.371 82.856 L 627.742 82.734 L 628.113 82.611 C 627.937 82.222 627.869 81.81 627.869 81.416 C 627.869 80.916 627.977 80.447 628.087 80.108 C 628.141 79.938 628.196 79.8 628.237 79.706 L 628.299 79.568 L 627.935 79.432 L 627.774 79.743 L 627.849 79.772 C 628.218 79.92 629.782 80.666 630.323 81.875 L 630.323 81.874 C 630.501 82.266 630.568 82.678 630.568 83.072 C 630.568 83.571 630.46 84.038 630.351 84.376 C 630.296 84.546 630.243 84.683 630.202 84.776 L 630.14 84.914 L 630.504 85.05 L 630.663 84.739 L 630.59 84.708 C 630.218 84.562 628.651 83.816 628.113 82.61 L 628.113 82.611 L 627.742 82.734"/>
      <path id="path6164" style="fill:#ffffff;fill-opacity:1;fill-rule:nonzero;stroke:none" d="M 632.223 89.339 L 632.096 89.016 C 631.707 89.127 631.305 89.17 630.914 89.17 C 630.282 89.171 629.682 89.055 629.245 88.939 C 629.026 88.88 628.848 88.822 628.726 88.779 L 628.589 88.728 L 628.546 88.711 L 628.369 89.015 L 628.726 89.167 L 628.764 89.106 C 628.955 88.798 629.908 87.498 631.35 87.1 C 631.74 86.99 632.143 86.946 632.534 86.946 C 633.166 86.944 633.765 87.06 634.201 87.178 C 634.42 87.236 634.599 87.295 634.721 87.338 L 634.858 87.39 L 634.899 87.406 L 635.077 87.102 L 634.721 86.951 L 634.681 87.012 C 634.491 87.319 633.541 88.615 632.096 89.016 L 632.223 89.339 L 632.35 89.66 C 634.404 89.056 635.406 87.279 635.433 87.254 L 635.609 86.95 L 635.255 86.798 C 635.224 86.788 634.022 86.27 632.534 86.266 C 632.074 86.266 631.585 86.318 631.098 86.455 C 629.045 87.055 628.04 88.839 628.013 88.863 L 627.835 89.168 L 628.192 89.32 C 628.223 89.33 629.428 89.846 630.914 89.85 C 631.374 89.85 631.862 89.798 632.348 89.66 L 632.223 89.339"/>
      <path id="path6166" style="fill:#ffffff;fill-opacity:1;fill-rule:nonzero;stroke:none" d="M 625.302 86.582 L 624.93 86.704 C 625.729 88.428 627.862 89.196 627.891 89.218 L 628.256 89.354 L 628.416 89.044 C 628.426 89.02 628.917 88.084 628.919 86.914 C 628.919 86.46 628.844 85.968 628.626 85.486 L 628.626 85.484 C 627.82 83.766 625.697 82.994 625.666 82.972 L 625.302 82.835 L 625.141 83.146 C 625.13 83.17 624.638 84.107 624.637 85.278 C 624.637 85.731 624.712 86.223 624.932 86.704 L 624.93 86.704 L 625.302 86.582 L 625.673 86.459 C 625.497 86.074 625.431 85.667 625.431 85.278 C 625.431 84.776 625.541 84.304 625.654 83.963 C 625.708 83.792 625.764 83.654 625.805 83.559 L 625.87 83.42 L 625.505 83.283 L 625.345 83.594 L 625.417 83.623 C 625.785 83.772 627.343 84.52 627.883 85.731 L 627.883 85.73 C 628.059 86.116 628.125 86.524 628.125 86.914 C 628.125 87.416 628.014 87.887 627.904 88.227 C 627.848 88.398 627.793 88.536 627.752 88.631 L 627.689 88.77 L 628.052 88.907 L 628.211 88.596 L 628.139 88.566 C 627.769 88.418 626.207 87.671 625.674 86.46 L 625.668 86.446 L 625.673 86.459 L 625.302 86.582"/>
      <path id="path6168" style="fill:#ffffff;fill-opacity:1;fill-rule:nonzero;stroke:none" d="M 629.163 93.459 L 629.082 93.126 C 628.846 93.168 628.609 93.186 628.374 93.186 C 627.646 93.187 626.943 93.007 626.427 92.824 C 626.17 92.732 625.959 92.642 625.813 92.574 L 625.649 92.492 L 625.598 92.466 L 625.38 92.75 L 625.713 92.936 L 625.759 92.879 C 625.991 92.592 627.112 91.4 628.596 91.148 C 628.832 91.107 629.068 91.088 629.302 91.088 C 630.03 91.088 630.733 91.268 631.251 91.451 C 631.509 91.543 631.72 91.635 631.866 91.703 L 632.03 91.783 L 632.081 91.811 L 632.299 91.527 L 631.966 91.34 L 631.918 91.398 C 631.687 91.684 630.567 92.876 629.082 93.126 L 629.163 93.459 L 629.243 93.791 C 631.364 93.402 632.603 91.735 632.631 91.712 L 632.85 91.428 L 632.517 91.243 C 632.486 91.23 631.06 90.416 629.302 90.41 C 629.02 90.41 628.729 90.431 628.435 90.483 C 626.316 90.874 625.075 92.542 625.047 92.563 L 624.829 92.847 L 625.162 93.034 C 625.195 93.047 626.617 93.859 628.374 93.866 C 628.657 93.866 628.95 93.843 629.243 93.791 L 629.163 93.459"/>
      <path id="path6170" style="fill:#ffffff;fill-opacity:1;fill-rule:nonzero;stroke:none" d="M 622.664 90.032 L 622.28 90.116 C 622.833 91.906 624.848 92.886 624.873 92.91 L 625.216 93.082 L 625.42 92.79 C 625.434 92.763 626.242 91.614 626.247 90.204 C 626.247 89.903 626.209 89.59 626.115 89.275 C 625.555 87.486 623.547 86.507 623.519 86.483 L 623.176 86.31 L 622.974 86.602 C 622.96 86.63 622.152 87.776 622.145 89.186 C 622.145 89.487 622.185 89.802 622.28 90.118 L 622.28 90.116 L 622.664 90.032 L 623.05 89.947 C 622.974 89.695 622.942 89.438 622.942 89.186 C 622.941 88.595 623.12 88.028 623.303 87.614 C 623.394 87.406 623.485 87.236 623.551 87.12 L 623.633 86.988 L 623.659 86.948 L 623.316 86.775 L 623.114 87.067 L 623.183 87.104 C 623.53 87.29 624.979 88.188 625.345 89.444 C 625.42 89.696 625.452 89.952 625.452 90.204 C 625.454 90.794 625.274 91.362 625.091 91.778 C 624.999 91.986 624.909 92.155 624.841 92.271 L 624.76 92.404 L 624.733 92.444 L 625.075 92.616 L 625.279 92.324 L 625.209 92.287 C 624.863 92.103 623.413 91.203 623.05 89.948 L 623.05 89.947 L 622.664 90.032"/>
      <path id="path6172" style="fill:#ffffff;fill-opacity:1;fill-rule:nonzero;stroke:none" d="M 625.621 97.467 L 625.577 97.13 L 625.209 97.147 C 624.414 97.148 623.647 96.911 623.086 96.668 C 622.805 96.547 622.575 96.426 622.417 96.335 L 622.238 96.227 L 622.181 96.191 L 621.933 96.456 L 622.242 96.668 L 622.295 96.615 C 622.56 96.35 623.809 95.252 625.314 95.122 L 625.687 95.104 C 626.479 95.103 627.244 95.339 627.806 95.582 C 628.085 95.703 628.314 95.824 628.473 95.915 L 628.652 96.023 L 628.707 96.059 L 628.957 95.794 L 628.646 95.582 L 628.593 95.635 C 628.331 95.902 627.085 96.996 625.577 97.13 L 625.621 97.467 L 625.664 97.804 C 627.82 97.584 629.237 96.026 629.268 96.006 L 629.514 95.742 L 629.205 95.53 C 629.172 95.515 627.637 94.435 625.687 94.424 C 625.534 94.424 625.382 94.431 625.227 94.446 C 623.076 94.666 621.653 96.224 621.622 96.243 L 621.374 96.508 L 621.683 96.722 C 621.717 96.736 623.255 97.816 625.209 97.826 C 625.359 97.826 625.511 97.819 625.664 97.804 L 625.621 97.467"/>
      <path id="path6174" style="fill:#ffffff;fill-opacity:1;fill-rule:nonzero;stroke:none" d="M 619.531 93.532 L 619.138 93.586 C 619.496 95.407 621.388 96.546 621.411 96.572 L 621.732 96.772 L 621.967 96.498 C 621.984 96.468 623.09 95.2 623.099 93.62 C 623.099 93.436 623.083 93.248 623.047 93.058 L 623.047 93.059 C 622.692 91.228 620.798 90.09 620.774 90.064 L 620.451 89.864 L 620.217 90.139 C 620.202 90.167 619.095 91.436 619.086 93.02 C 619.086 93.204 619.101 93.394 619.138 93.586 L 619.531 93.532 L 619.923 93.478 C 619.895 93.326 619.883 93.172 619.883 93.02 C 619.881 92.37 620.123 91.742 620.373 91.28 C 620.497 91.05 620.621 90.86 620.714 90.731 L 620.825 90.584 L 620.86 90.539 L 620.539 90.339 L 620.305 90.614 L 620.371 90.656 C 620.695 90.868 622.037 91.882 622.261 93.164 C 622.289 93.318 622.303 93.47 622.303 93.62 C 622.303 94.27 622.061 94.896 621.811 95.356 C 621.688 95.587 621.562 95.775 621.47 95.904 L 621.361 96.052 L 621.323 96.098 L 621.646 96.298 L 621.88 96.023 L 621.816 95.98 C 621.491 95.768 620.15 94.754 619.923 93.478 L 619.531 93.532"/>
      <path id="path6176" style="fill:#ffffff;fill-opacity:1;fill-rule:nonzero;stroke:none" d="M 622.185 100.834 L 622.168 100.494 L 622.045 100.496 C 621.206 100.498 620.403 100.215 619.814 99.924 C 619.52 99.779 619.279 99.632 619.115 99.524 L 618.927 99.395 L 618.868 99.351 L 618.599 99.6 L 618.89 99.831 L 618.948 99.78 C 619.231 99.531 620.565 98.512 622.082 98.475 L 622.213 98.472 C 623.052 98.471 623.855 98.754 624.446 99.044 C 624.74 99.19 624.98 99.336 625.144 99.444 L 625.332 99.574 L 625.389 99.618 L 625.66 99.368 L 625.369 99.138 L 625.312 99.187 C 625.027 99.436 623.69 100.454 622.168 100.494 L 622.185 100.834 L 622.2 101.172 C 624.372 101.084 625.919 99.616 625.952 99.599 L 626.222 99.35 L 625.932 99.119 C 625.898 99.103 624.305 97.807 622.213 97.794 L 622.05 97.796 C 619.883 97.882 618.338 99.352 618.306 99.371 L 618.036 99.619 L 618.328 99.85 C 618.362 99.866 619.956 101.162 622.045 101.175 L 622.199 101.172 L 622.185 100.834"/>
      <path id="path6178" style="fill:#ffffff;fill-opacity:1;fill-rule:nonzero;stroke:none" d="M 616.447 96.534 L 616.049 96.562 C 616.252 98.403 618.045 99.654 618.066 99.68 L 618.371 99.899 L 618.628 99.64 C 618.645 99.611 619.996 98.282 620.007 96.574 L 619.992 96.271 L 619.992 96.272 C 619.795 94.431 618.003 93.18 617.981 93.152 L 617.676 92.934 L 617.419 93.194 C 617.401 93.222 616.048 94.556 616.035 96.266 L 616.049 96.562 L 616.447 96.534 L 616.843 96.504 L 616.831 96.266 C 616.829 95.574 617.126 94.907 617.431 94.418 C 617.582 94.174 617.734 93.974 617.848 93.836 L 617.982 93.68 L 618.028 93.631 L 617.723 93.412 L 617.466 93.672 L 617.527 93.719 C 617.834 93.95 619.087 95.043 619.2 96.328 L 619.2 96.33 L 619.213 96.574 C 619.214 97.266 618.918 97.93 618.615 98.419 C 618.464 98.662 618.313 98.862 618.2 98.998 L 618.064 99.154 L 618.018 99.202 L 618.323 99.422 L 618.58 99.162 L 618.519 99.115 C 618.214 98.884 616.959 97.791 616.843 96.504 L 616.447 96.534"/>
      <path id="path6180" style="fill:#ffffff;fill-opacity:1;fill-rule:nonzero;stroke:none" d="M 617.821 103.875 L 617.848 103.536 C 616.983 103.488 616.189 103.134 615.612 102.782 C 615.324 102.606 615.093 102.432 614.935 102.304 L 614.756 102.152 L 614.699 102.1 L 614.399 102.324 L 614.662 102.58 L 614.718 102.54 C 615.005 102.338 616.345 101.51 617.783 101.519 L 618.015 101.526 C 618.876 101.572 619.672 101.927 620.246 102.279 C 620.535 102.455 620.767 102.628 620.925 102.756 L 621.103 102.91 L 621.159 102.96 L 621.459 102.738 L 621.198 102.482 L 621.141 102.522 C 620.853 102.724 619.513 103.551 618.075 103.543 L 617.848 103.536 L 617.821 103.875 L 617.793 104.214 L 618.075 104.223 C 620.108 104.21 621.686 103.01 621.721 102.994 L 622.022 102.771 L 621.759 102.514 C 621.727 102.495 620.228 100.987 618.069 100.848 L 617.783 100.839 C 615.748 100.851 614.173 102.052 614.138 102.068 L 613.837 102.292 L 614.1 102.548 C 614.133 102.567 615.632 104.072 617.795 104.214 L 617.821 103.875"/>
      <path id="path6182" style="fill:#ffffff;fill-opacity:1;fill-rule:nonzero;stroke:none" d="M 612.647 99.083 L 612.251 99.076 L 612.249 99.146 C 612.266 100.96 613.85 102.331 613.868 102.359 L 614.143 102.604 L 614.431 102.37 C 614.451 102.342 616.148 100.999 616.208 99.146 L 616.209 99.066 C 616.191 97.255 614.614 95.891 614.595 95.862 L 614.32 95.616 L 614.032 95.851 C 614.011 95.88 612.317 97.223 612.251 99.076 L 612.647 99.083 L 613.046 99.091 C 613.063 98.35 613.442 97.656 613.827 97.15 C 614.02 96.896 614.212 96.691 614.354 96.551 L 614.525 96.392 L 614.582 96.342 L 614.307 96.096 L 614.02 96.332 L 614.072 96.382 C 614.339 96.632 615.425 97.798 615.413 99.066 L 615.412 99.131 L 615.412 99.148 L 615.412 99.132 C 615.397 99.872 615.019 100.566 614.635 101.072 C 614.443 101.326 614.25 101.53 614.109 101.67 L 613.939 101.83 L 613.88 101.879 L 614.155 102.124 L 614.443 101.89 L 614.39 101.839 C 614.121 101.588 613.034 100.416 613.044 99.146 L 613.046 99.091 L 612.647 99.083"/>
      <path id="path6184" style="fill:#ffffff;fill-opacity:1;fill-rule:nonzero;stroke:none" d="M 613.865 106.332 L 613.913 105.995 C 613.053 105.904 612.281 105.513 611.731 105.135 C 611.455 104.947 611.236 104.763 611.088 104.628 L 610.92 104.468 L 610.866 104.415 L 610.554 104.624 L 610.799 104.891 L 610.854 104.856 C 611.128 104.682 612.416 103.96 613.79 103.967 L 614.204 103.99 C 615.064 104.078 615.835 104.467 616.388 104.847 C 616.664 105.035 616.884 105.219 617.034 105.355 L 617.204 105.515 L 617.255 105.569 L 617.569 105.36 L 617.325 105.092 L 617.269 105.127 C 616.992 105.301 615.698 106.023 614.323 106.016 L 613.913 105.995 L 613.865 106.332 L 613.817 106.668 C 613.987 106.687 614.155 106.695 614.323 106.695 C 616.25 106.685 617.78 105.643 617.813 105.628 L 618.13 105.419 L 617.882 105.151 C 617.851 105.131 616.451 103.555 614.302 103.315 C 614.129 103.296 613.957 103.288 613.79 103.288 C 611.864 103.298 610.341 104.342 610.307 104.356 L 609.994 104.566 L 610.24 104.834 C 610.27 104.854 611.663 106.423 613.814 106.668 L 613.865 106.332"/>
      <path id="path6186" style="fill:#ffffff;fill-opacity:1;fill-rule:nonzero;stroke:none" d="M 609.005 101.302 L 608.608 101.276 L 608.597 101.538 C 608.611 103.262 609.997 104.604 610.016 104.632 L 610.275 104.889 L 610.577 104.668 C 610.598 104.642 612.373 103.379 612.558 101.532 L 612.57 101.27 C 612.556 99.547 611.169 98.204 611.15 98.176 L 610.891 97.918 L 610.589 98.139 C 610.568 98.167 608.789 99.431 608.608 101.276 L 609.005 101.302 L 609.402 101.327 C 609.466 100.59 609.886 99.915 610.303 99.427 C 610.512 99.183 610.716 98.987 610.868 98.854 L 611.047 98.702 L 611.108 98.655 L 610.849 98.396 L 610.547 98.618 L 610.594 98.667 C 610.827 98.911 611.783 100.051 611.774 101.27 L 611.765 101.48 C 611.699 102.219 611.278 102.895 610.861 103.383 C 610.654 103.626 610.448 103.822 610.298 103.955 L 610.119 104.107 L 610.058 104.154 L 610.317 104.411 L 610.62 104.19 L 610.573 104.14 C 610.339 103.896 609.383 102.758 609.392 101.538 L 609.402 101.327 L 609.005 101.302"/>
      <path id="path6188" style="fill:#ffffff;fill-opacity:1;fill-rule:nonzero;stroke:none" d="M 609.716 108.645 L 609.772 108.308 C 608.915 108.207 608.151 107.805 607.608 107.419 C 607.334 107.227 607.119 107.04 606.972 106.903 L 606.806 106.741 L 606.754 106.687 L 606.438 106.892 L 606.678 107.163 L 606.731 107.129 C 607.003 106.961 608.277 106.273 609.632 106.279 C 609.787 106.279 609.944 106.288 610.102 106.307 C 610.959 106.408 611.724 106.809 612.267 107.196 C 612.539 107.388 612.755 107.575 612.903 107.712 L 613.068 107.875 L 613.119 107.929 L 613.437 107.725 L 613.198 107.453 L 613.143 107.487 C 612.87 107.653 611.596 108.341 610.24 108.336 C 610.085 108.336 609.928 108.327 609.771 108.308 L 609.716 108.645 L 609.661 108.981 C 609.857 109.004 610.05 109.015 610.24 109.015 C 612.131 109.005 613.643 108.011 613.677 107.996 L 613.995 107.791 L 613.753 107.52 C 613.724 107.5 612.359 105.907 610.213 105.633 C 610.016 105.611 609.823 105.6 609.632 105.6 C 607.738 105.609 606.229 106.607 606.196 106.621 L 605.88 106.825 L 606.12 107.096 C 606.15 107.117 607.518 108.705 609.661 108.981 L 609.716 108.645"/>
      <path id="path6190" style="fill:#ffffff;fill-opacity:1;fill-rule:nonzero;stroke:none" d="M 604.954 103.55 L 604.559 103.518 L 604.542 103.84 C 604.554 105.535 605.885 106.864 605.901 106.893 L 606.157 107.155 L 606.462 106.937 C 606.486 106.909 608.283 105.669 608.502 103.827 L 608.519 103.506 C 608.505 101.812 607.179 100.48 607.16 100.452 L 606.904 100.191 L 606.598 100.408 C 606.576 100.435 604.778 101.675 604.559 103.518 L 604.954 103.55 L 605.351 103.58 C 605.43 102.843 605.864 102.172 606.29 101.691 C 606.503 101.45 606.711 101.256 606.864 101.126 L 607.047 100.976 L 607.108 100.93 L 606.853 100.67 L 606.547 100.886 L 606.593 100.935 C 606.815 101.176 607.732 102.304 607.722 103.506 L 607.708 103.764 C 607.63 104.502 607.197 105.172 606.771 105.655 C 606.56 105.895 606.35 106.088 606.196 106.22 L 606.014 106.369 L 605.953 106.415 L 606.208 106.676 L 606.514 106.459 L 606.468 106.411 C 606.246 106.169 605.328 105.041 605.337 103.84 L 605.351 103.58 L 604.954 103.55"/>
    </g>
  </g>
</svg>